<svg width="512" height="512" viewBox="0 0 512 512" fill="none" xmlns="http://www.w3.org/2000/svg">
    <style>
        path {
            fill: #44403b;
        }

        rect {
            fill: #f6f5f5;
        }

        @media (prefers-color-scheme: dark) {
            path {
                fill: #f6f5f5;
            }

            rect {
                fill: #44403b;
            }
        }
    </style>
    <rect width="512" height="512" rx="256" />
    <path d="M202.565 396.998V330.489L229.282 328.209L207.526 317.187C206.763 312.12 206.255 307.813 206 304.266C205.745 300.465 205.619 297.298 205.619 294.765C205.619 278.043 208.544 262.967 214.397 249.539C220.504 236.111 228.901 223.95 239.588 213.055L194.168 207.354L156 188.352C157.273 162.002 164.906 140.719 178.901 124.504C192.896 108.288 213.125 98.9137 239.588 96.38C241.369 96.1267 243.023 96 244.549 96C246.076 96 247.603 96 249.13 96C259.562 96 268.723 97.5202 276.611 100.561C284.753 103.348 293.914 107.021 304.092 111.582C320.631 118.676 333.353 127.797 342.259 138.945C351.42 149.84 356 164.282 356 182.271C356 196.966 353.201 210.901 347.603 224.076C342.005 237.251 332.463 250.046 318.977 262.461C311.598 269.301 305.873 277.409 301.802 286.784C297.731 295.905 295.694 305.28 295.694 314.908C295.694 316.935 295.822 319.215 296.077 321.748C296.331 324.282 296.967 327.703 297.985 332.01L280.046 333.53L301.802 344.171V410.68L240.733 416L202.565 396.998ZM254.855 309.587C254.091 305.026 253.71 300.465 253.71 295.905C253.71 285.517 255.746 275.509 259.817 265.881C264.143 256.254 270.25 247.893 278.138 240.798C291.369 228.89 300.657 216.475 306 203.554C311.343 190.632 314.015 177.204 314.015 163.269C314.015 144.013 308.163 128.684 296.458 117.283C285.007 105.628 269.105 99.8005 248.748 99.8005C247.222 99.8005 245.695 99.8005 244.168 99.8005C242.896 99.8005 241.496 99.9272 239.969 100.181C214.524 102.461 195.059 111.329 181.573 126.784C168.341 141.986 161.089 161.495 159.817 185.311L206.381 191.012C208.672 165.675 219.104 152.247 237.679 150.727H241.114C248.239 150.727 253.837 152.627 257.908 156.427C261.979 160.228 264.015 165.169 264.015 171.25C264.015 178.344 262.616 185.438 259.817 192.532C257.273 199.373 252.82 205.707 246.458 211.534C235.262 222.429 226.229 234.717 219.359 248.399C212.743 262.08 209.435 277.536 209.435 294.765C209.435 300.339 209.817 306.547 210.58 313.387L254.855 309.587ZM260.962 171.25C255.364 171.25 251.166 174.797 248.367 181.891C245.568 188.985 243.913 198.233 243.404 209.634C247.984 204.82 251.928 199.12 255.236 192.532C258.799 185.945 260.708 178.851 260.962 171.25ZM206.381 333.91V393.197L259.817 388.637V329.349L206.381 333.91Z" />
</svg>



