<svg width="512" height="512" viewBox="0 0 512 512" fill="none" xmlns="http://www.w3.org/2000/svg">
    <style>
        path {
            fill: #44403b;
        }

        rect {
            fill: #fbfafa;
        }

        @media (prefers-color-scheme: dark) {
            path {
                fill: #f6f5f5;
            }

            rect {
                fill: #0c0a0a;
            }
        }
    </style>
    <rect width="512" height="512" rx="256" />
    <path d="M196.386 414.622V339.801L226.443 337.235L201.967 324.836C201.109 319.136 200.536 314.29 200.25 310.299C199.964 306.024 199.821 302.461 199.821 299.611C199.821 280.798 203.113 263.838 209.697 248.731C216.567 233.625 226.014 219.943 238.036 207.686L186.939 201.273L144 179.895C145.432 150.252 154.019 126.309 169.764 108.066C185.507 89.8242 208.265 79.2779 238.036 76.4275C240.04 76.1425 241.901 76 243.618 76C245.336 76 247.053 76 248.771 76C260.508 76 270.813 77.7102 279.687 81.1306C288.847 84.266 299.153 88.3991 310.603 93.5297C329.21 101.511 343.523 111.772 353.542 124.314C363.847 136.57 369 152.817 369 173.055C369 189.587 365.851 205.264 359.553 220.086C353.256 234.907 342.521 249.302 327.349 263.269C319.048 270.964 312.607 280.086 308.027 290.632C303.447 300.893 301.156 311.439 301.156 322.271C301.156 324.551 301.3 327.116 301.586 329.967C301.872 332.817 302.588 336.665 303.733 341.511L283.552 343.221L308.027 355.192V430.014L239.325 436L196.386 414.622ZM255.212 316.285C254.353 311.154 253.924 306.024 253.924 300.893C253.924 289.207 256.214 277.948 260.794 267.116C265.66 256.285 272.531 246.879 281.405 238.898C296.29 225.501 306.739 211.534 312.75 196.998C318.761 182.461 321.767 167.354 321.767 151.677C321.767 130.014 315.183 112.77 302.015 99.943C289.133 86.8313 271.243 80.2755 248.342 80.2755C246.624 80.2755 244.906 80.2755 243.189 80.2755C241.757 80.2755 240.183 80.418 238.466 80.7031C209.839 83.2684 187.941 93.2446 172.769 110.632C157.884 127.734 149.725 149.682 148.294 176.475L200.679 182.888C203.256 154.385 214.993 139.278 235.889 137.568H239.754C247.769 137.568 254.067 139.705 258.647 143.981C263.227 148.256 265.517 153.815 265.517 160.656C265.517 168.636 263.943 176.618 260.794 184.599C257.932 192.295 252.922 199.42 245.765 205.976C233.17 218.233 223.008 232.057 215.279 247.449C207.836 262.841 204.114 280.228 204.114 299.611C204.114 305.881 204.544 312.865 205.403 320.56L255.212 316.285ZM262.082 160.656C255.785 160.656 251.061 164.646 247.912 172.627C244.763 180.608 242.903 191.012 242.33 203.838C247.483 198.423 251.92 192.009 255.641 184.599C259.649 177.188 261.796 169.207 262.082 160.656ZM200.679 343.648V410.347L260.794 405.216V338.518L200.679 343.648Z" />
</svg>