<svg width="64" height="64" viewBox="0 0 64 64" fill="none" xmlns="http://www.w3.org/2000/svg">
<path d="M21.313 60.1995V46.8979L26.6565 46.4418L22.3053 44.2375C22.1527 43.2241 22.0509 42.3626 22 41.6532C21.9491 40.8931 21.9237 40.2597 21.9237 39.753C21.9237 36.4086 22.5089 33.3935 23.6794 30.7078C24.9008 28.0222 26.5802 25.5899 28.7176 23.4109L19.6336 22.2708L12 18.4703C12.2545 13.2003 13.7812 8.94378 16.5802 5.70071C19.3791 2.45764 23.4249 0.582738 28.7176 0.0760085C29.0738 0.0253362 29.4046 0 29.7099 0C30.0153 0 30.3206 0 30.626 0C32.7125 0 34.5445 0.304037 36.1221 0.912111C37.7506 1.46952 39.5827 2.20428 41.6183 3.11639C44.9262 4.53523 47.4707 6.35946 49.2519 8.58907C51.084 10.768 52 13.6564 52 17.2542C52 20.1932 51.4402 22.9802 50.3206 25.6152C49.201 28.2502 47.2926 30.8092 44.5954 33.2922C43.1196 34.6603 41.9746 36.2819 41.1603 38.1568C40.3461 39.981 39.9389 41.8559 39.9389 43.7815C39.9389 44.1869 39.9644 44.6429 40.0153 45.1496C40.0662 45.6564 40.1934 46.3405 40.3969 47.2019L36.8092 47.5059L41.1603 49.6342V62.9359L28.9466 64L21.313 60.1995ZM31.771 42.7173C31.6183 41.8052 31.542 40.8931 31.542 39.981C31.542 37.9034 31.9491 35.9018 32.7634 33.9762C33.6285 32.0507 34.8499 30.3785 36.4275 28.9596C39.0738 26.578 40.9313 24.095 42 21.5107C43.0687 18.9264 43.6031 16.2407 43.6031 13.4537C43.6031 9.60253 42.4326 6.53682 40.0916 4.25653C37.8015 1.92557 34.6209 0.760094 30.5496 0.760094C30.2443 0.760094 29.9389 0.760094 29.6336 0.760094C29.3791 0.760094 29.0992 0.78543 28.7939 0.836103C23.7048 1.29216 19.8117 3.06571 17.1145 6.15677C14.4682 9.19715 13.0178 13.099 12.7634 17.8622L22.0763 19.0024C22.5344 13.9351 24.6209 11.2494 28.3359 10.9454H29.0229C30.4478 10.9454 31.5674 11.3254 32.3817 12.0855C33.1959 12.8456 33.6031 13.8337 33.6031 15.0499C33.6031 16.4687 33.3232 17.8876 32.7634 19.3064C32.2545 20.6746 31.3639 21.9414 30.0916 23.1069C27.8524 25.2858 26.0458 27.7435 24.6718 30.4798C23.3486 33.2161 22.687 36.3072 22.687 39.753C22.687 40.8678 22.7634 42.1093 22.916 43.4774L31.771 42.7173ZM32.9924 15.0499C31.8728 15.0499 31.0331 15.7593 30.4733 17.1781C29.9135 18.597 29.5827 20.4466 29.4809 22.7268C30.3969 21.764 31.1857 20.6239 31.8473 19.3064C32.5598 17.9889 32.9415 16.5701 32.9924 15.0499ZM22.0763 47.5819V59.4394L32.7634 58.5273V46.6698L22.0763 47.5819Z" fill="#44403B" style="fill:#44403B;fill:color(display-p3 0.2685 0.2504 0.2323);fill-opacity:1;"/>
</svg>
